<?xml version="1.0" encoding="UTF-8" standalone="no"?>
<!DOCTYPE svg PUBLIC "-//W3C//DTD SVG 1.1//EN" "http://www.w3.org/Graphics/SVG/1.1/DTD/svg11.dtd">
<!-- Created with Inkscape (http://www.inkscape.org/) -->

<svg
   xmlns:dc="http://purl.org/dc/elements/1.1/"
   xmlns:cc="http://creativecommons.org/ns#"
   xmlns:rdf="http://www.w3.org/1999/02/22-rdf-syntax-ns#"
   xmlns:svg="http://www.w3.org/2000/svg"
   xmlns="http://www.w3.org/2000/svg"
   version="1.1"
   width="600"
   height="600"
   id="svg6640">
  <defs
     id="defs6642" />
  <metadata
     id="metadata6645">
    <rdf:RDF>
      <cc:Work
         rdf:about="">
        <dc:format>image/svg+xml</dc:format>
        <dc:type
           rdf:resource="http://purl.org/dc/dcmitype/StillImage" />
        <dc:title></dc:title>
      </cc:Work>
    </rdf:RDF>
  </metadata>
  <g
     transform="translate(-79.283485,-104.50727)"
     id="layer1">
    <rect
       width="480.19952"
       height="480.19952"
       x="139.18376"
       y="164.4075"
       id="rect9702"
       style="fill:#ffffff;fill-opacity:1;fill-rule:evenodd;stroke:none" />
    <path
       d="M 158.18408,141.77124 116.54745,183.40787 600.3829,667.24334 642.01954,625.60669 158.18408,141.77124 z"
       id="path9614"
       style="font-size:medium;font-style:normal;font-variant:normal;font-weight:normal;font-stretch:normal;text-indent:0;text-align:start;text-decoration:none;line-height:normal;letter-spacing:normal;word-spacing:normal;text-transform:none;direction:ltr;block-progression:tb;writing-mode:lr-tb;text-anchor:start;baseline-shift:baseline;color:#000000;fill:#e51f13;fill-opacity:1;stroke:none;stroke-width:29;marker:none;visibility:visible;display:inline;overflow:visible;enable-background:accumulate;font-family:Sans;-inkscape-font-specification:Sans" />
    <path
       d="m 99.283485,124.50727 0,560.00002 560.000015,0 0,-560.00002 -560.000015,0 z m 58.075495,58.01201 443.91251,0 0,443.976 -443.91251,0 0,-443.976 z"
       id="rect9610"
       style="fill:#e51f13;fill-opacity:1;stroke:none" />
    <path
       d="m 252.59397,212.24958 c -12.90946,0 -23.417,10.44828 -23.417,23.3578 0,9.74878 5.98337,18.1318 14.46524,21.63859 l -0.94854,11.91603 c -0.82902,-0.0578 -1.64362,-0.0841 -2.43073,-0.0592 -4.19674,0.13185 -7.76038,1.59774 -10.07805,6.16552 l -16.24395,91.11916 c -2.66672,16.84844 8.05577,19.29419 16.59947,24.06922 l 49.79833,15.23593 8.59625,15.7102 -102.73887,36.10382 -15.29502,26.44057 0,28.1005 255.098,-88.09568 c 58.33144,-20.98364 113.36521,-45.68253 158.2285,-81.93019 l -192.07943,4.387 -66.04234,-57.03099 c 0.16884,-1.88498 0.26844,-3.87831 0.29651,-5.98766 -3.50049,-9.95602 -6.99281,-7.27194 -10.49331,-8.83329 -18.57945,-0.92374 -28.79257,1.1951 -60.05436,-3.43846 l 0.94854,-12.50887 c 10.88372,-1.99579 19.14876,-11.54151 19.14876,-23.00211 0,-12.90953 -10.4484,-23.35781 -23.358,-23.35781 z m 14.22808,71.14053 45.70789,1.71923 c 7.67653,0.0806 7.70745,5.53082 6.46183,11.85676 l -10.55229,23.71351 -43.98878,-17.66657 2.37135,-19.62293 z m 57.86097,14.82094 83.35319,81.39663 -91.35641,32.07253 -15.35439,-30.41258 -45.35219,-16.24376 7.41058,-56.55673 47.13049,20.98647 c 3.77215,0.0607 5.78172,-2.27722 2.37135,-5.75053 5.08379,-8.70899 9.48653,-15.78172 11.79738,-25.49203 z m 263.10161,54.30394 c -66.83056,53.84373 -131.15336,73.13917 -217.4529,103.03521 l -199.31225,69.48059 0,21.04574 c 43.13773,11.57766 73.84009,-6.38326 94.37976,-19.14866 50.48019,-31.37301 85.85657,-66.98355 146.60889,-28.27836 122.6201,-36.04527 169.1515,-87.14513 175.7765,-146.13452 z M 361.20183,511.4548 c -10.2285,-0.0324 -19.95103,1.83826 -29.22682,5.09841 -24.73526,8.69374 -46.44319,25.93465 -71.19971,41.32079 -20.29574,12.6136 -47.42265,28.75704 -87.20652,18.20012 l -2.78644,-1.06711 0,18.31869 c 45.30211,11.34068 78.75106,-7.93313 99.18185,-20.63076 25.72328,-15.98686 46.98557,-32.35886 67.76125,-39.66084 20.77589,-7.30198 40.87471,-7.01813 69.53997,11.3232 7.73747,4.95082 16.46799,5.48617 23.47638,3.85345 7.00838,-1.63273 12.8034,-4.7776 18.14084,-7.17334 5.55939,-2.4953 16.65333,-1.29973 27.62623,2.60849 10.97291,3.90821 21.62237,9.89151 26.55913,13.10172 14.0754,9.15251 30.28596,11.38726 44.93712,9.90038 9.50703,-0.96482 18.37114,-3.45045 26.02566,-6.9362 l 0,-19.97864 c -6.29527,4.30646 -16.67608,8.4214 -27.74481,9.54469 -11.60234,1.17741 -23.74329,-0.67786 -33.73255,-7.17333 -6.09134,-3.96086 -17.33174,-10.36497 -30.17554,-14.93952 -12.84325,-4.57454 -27.49554,-7.98766 -40.66847,-2.07492 -5.96273,2.67619 -11.02166,5.19352 -14.9395,6.10622 -3.91826,0.9127 -6.21335,0.93178 -10.07845,-1.54137 -20.00661,-12.80151 -38.44148,-18.14615 -55.48962,-18.20013 z"
       id="path4509"
       style="fill:#000000;fill-opacity:1;stroke:none" />
  </g>
</svg>
