<?xml version="1.0" encoding="UTF-8" standalone="no"?>
<!DOCTYPE svg PUBLIC "-//W3C//DTD SVG 1.1//EN" "http://www.w3.org/Graphics/SVG/1.1/DTD/svg11.dtd">
<!-- Created with Inkscape (http://www.inkscape.org/) -->

<svg
   xmlns:dc="http://purl.org/dc/elements/1.1/"
   xmlns:cc="http://creativecommons.org/ns#"
   xmlns:rdf="http://www.w3.org/1999/02/22-rdf-syntax-ns#"
   xmlns:svg="http://www.w3.org/2000/svg"
   xmlns="http://www.w3.org/2000/svg"
   version="1.1"
   width="600"
   height="600"
   id="svg6640">
  <defs
     id="defs6642" />
  <metadata
     id="metadata6645">
    <rdf:RDF>
      <cc:Work
         rdf:about="">
        <dc:format>image/svg+xml</dc:format>
        <dc:type
           rdf:resource="http://purl.org/dc/dcmitype/StillImage" />
        <dc:title></dc:title>
      </cc:Work>
    </rdf:RDF>
  </metadata>
  <g
     transform="translate(-79.283485,-104.50727)"
     id="layer1">
    <g
       transform="matrix(1.0181736,0,0,1.0181736,-1.8043349,-12.439938)"
       id="g6659">
      <rect
         width="471.62833"
         height="471.62833"
         x="138.47157"
         y="173.69086"
         id="rect9702"
         style="fill:#ffffff;fill-opacity:1;fill-rule:evenodd;stroke:none" />
      <path
         d="m 99.283482,134.50281 0,550.00446 550.004458,0 0,-550.00446 -550.004458,0 z m 57.038888,56.97654 435.98902,0 0,436.05138 -435.98902,0 0,-436.05138 z"
         id="rect9610"
         style="fill:#e51f13;fill-opacity:1;stroke:none" />
      <path
         d="M 157.13275,151.45863 116.2393,192.35208 591.43867,667.55146 632.33212,626.658 157.13275,151.45863 z"
         id="path9614"
         style="font-size:medium;font-style:normal;font-variant:normal;font-weight:normal;font-stretch:normal;text-indent:0;text-align:start;text-decoration:none;line-height:normal;letter-spacing:normal;word-spacing:normal;text-transform:none;direction:ltr;block-progression:tb;writing-mode:lr-tb;text-anchor:start;baseline-shift:baseline;color:#000000;fill:#e51f13;fill-opacity:1;stroke:none;stroke-width:29;marker:none;visibility:visible;display:inline;overflow:visible;enable-background:accumulate;font-family:Sans;-inkscape-font-specification:Sans" />
    </g>
    <g
       transform="matrix(2.046287,0,0,2.046287,2530.3149,122.37836)"
       id="g9742">
      <path
         d="m -991.75,40.375 c -2.6831,9.681524 -9.1027,14.740128 -19.0625,16 -37.627,4.759659 -59.7307,28.027673 -73.9687,43.15625 -1.6483,-1.741649 -3.2701,-3.488105 -4.8126,-5.25 0.5627,5.88079 1.2582,11.77514 0.5,17.6875 5.0804,-0.77641 11.0821,-0.96806 16.5313,-0.40625 -1.9204,-1.77443 -3.7869,-3.55356 -5.625,-5.34375 17.0798,-13.457307 38.3657,-24.378019 74.7187,-26.25 l 5.31255,124.53125 -15.18755,7.15625 0.2188,9.8125 42.75,0 0.25,-9.8125 -15.1875,-7.15625 5.28125,-124.53125 c 36.35536,1.872101 57.6692,12.791546 74.75,26.25 -1.83937,1.79151 -3.70318,3.56801 -5.625,5.34375 5.44916,-0.56181 11.45084,-0.37016 16.53125,0.40625 -0.75808,-5.91236 -0.094,-11.80671 0.46875,-17.6875 -1.54149,1.760834 -3.13407,3.509389 -4.78125,5.25 -14.2374,-15.128348 -36.33091,-38.395218 -73.96875,-43.15625 -9.9598,-1.259872 -16.41065,-6.318476 -19.09375,-16 z"
         transform="translate(-59.4375,-7.78125)"
         id="path9704"
         style="fill:#000000;fill-opacity:1;stroke:none" />
      <path
         d="m -1051.2032,215.1875 c -7.6925,0 -13.9062,6.24496 -13.9062,13.9375 0,7.69254 6.2137,13.90625 13.9062,13.90625 7.6926,0 13.9375,-6.21371 13.9375,-13.90625 0,-7.69254 -6.2449,-13.9375 -13.9375,-13.9375 z m 0,5.34375 c 4.7339,0 8.5938,3.85988 8.5938,8.59375 0,4.73387 -3.8599,8.5625 -8.5938,8.5625 -4.7338,0 -8.5625,-3.82863 -8.5625,-8.5625 0,-4.73387 3.8287,-8.59375 8.5625,-8.59375 z"
         id="path9713"
         style="fill:#000000;fill-opacity:1;stroke:#000000;stroke-width:0.24434496;stroke-miterlimit:4;stroke-opacity:1;stroke-dasharray:none" />
      <rect
         width="6.1871843"
         height="5.0507627"
         x="-1054.2811"
         y="211.96413"
         id="rect9740"
         style="fill:#000000;fill-opacity:1;fill-rule:evenodd;stroke:#000000;stroke-width:0.24434499;stroke-linecap:butt;stroke-linejoin:round;stroke-miterlimit:4;stroke-opacity:1;stroke-dasharray:none;stroke-dashoffset:0" />
    </g>
  </g>
</svg>
