<?xml version="1.0" encoding="UTF-8" standalone="no"?>
<!DOCTYPE svg PUBLIC "-//W3C//DTD SVG 1.1//EN" "http://www.w3.org/Graphics/SVG/1.1/DTD/svg11.dtd">
<!-- Created with Inkscape (http://www.inkscape.org/) -->

<svg
   xmlns:dc="http://purl.org/dc/elements/1.1/"
   xmlns:cc="http://creativecommons.org/ns#"
   xmlns:rdf="http://www.w3.org/1999/02/22-rdf-syntax-ns#"
   xmlns:svg="http://www.w3.org/2000/svg"
   xmlns="http://www.w3.org/2000/svg"
   version="1.1"
   width="600"
   height="600"
   id="svg6640">
  <defs
     id="defs6642" />
  <metadata
     id="metadata6645">
    <rdf:RDF>
      <cc:Work
         rdf:about="">
        <dc:format>image/svg+xml</dc:format>
        <dc:type
           rdf:resource="http://purl.org/dc/dcmitype/StillImage" />
        <dc:title></dc:title>
      </cc:Work>
    </rdf:RDF>
  </metadata>
  <g
     transform="translate(-79.283485,-104.50727)"
     id="layer1">
    <rect
       width="480.19952"
       height="480.19952"
       x="139.18376"
       y="164.4075"
       id="rect9702"
       style="fill:#ffffff;fill-opacity:1;fill-rule:evenodd;stroke:none" />
    <path
       d="M 158.18408,141.77124 116.54745,183.40787 600.3829,667.24334 642.01954,625.60669 158.18408,141.77124 z"
       id="path9614"
       style="font-size:medium;font-style:normal;font-variant:normal;font-weight:normal;font-stretch:normal;text-indent:0;text-align:start;text-decoration:none;line-height:normal;letter-spacing:normal;word-spacing:normal;text-transform:none;direction:ltr;block-progression:tb;writing-mode:lr-tb;text-anchor:start;baseline-shift:baseline;color:#000000;fill:#e51f13;fill-opacity:1;stroke:none;stroke-width:29;marker:none;visibility:visible;display:inline;overflow:visible;enable-background:accumulate;font-family:Sans;-inkscape-font-specification:Sans" />
    <path
       d="m 99.283485,124.50727 0,560.00002 560.000015,0 0,-560.00002 -560.000015,0 z m 58.075495,58.01201 443.91251,0 0,443.976 -443.91251,0 0,-443.976 z"
       id="rect9610"
       style="fill:#e51f13;fill-opacity:1;stroke:none" />
    <path
       d="m 516.1085,198.13879 c -1.10359,-0.0169 -2.23736,0.0112 -3.33591,0.0584 -2.92877,0.12455 -5.81523,0.4479 -8.48578,0.87785 -8.40767,1.35373 -11.9086,5.34903 -12.64103,10.53419 -0.86166,6.10124 -2.79976,12.89375 -6.32051,19.19564 -1.18038,2.11284 -2.03248,6.40851 0.23408,7.25688 2.36623,0.88566 3.62566,3.55742 3.5114,7.25689 -0.13297,4.26698 3.02656,9.60648 8.19327,11.47056 1.82142,0.65716 6.49224,0.0378 6.78869,3.97957 0.50301,6.69047 -6.30215,9.39912 -11.00238,9.59783 -8.8839,0.37559 -19.5093,-0.91946 -26.21841,4.91595 -2.80444,2.43928 -8.01929,6.18509 -14.74787,5.61823 -6.6415,-0.55952 -12.92192,0.70197 -18.25926,4.91596 -6.82634,5.3897 -17.06501,3.74964 -25.75023,4.21367 -12.66087,0.67644 -24.75599,2.15654 -31.83667,6.7887 -8.01777,5.24514 -18.51055,6.00084 -28.09114,6.08642 -8.03388,0.0717 -15.73424,-5.88629 -23.4093,-3.5114 -3.08966,0.95606 -4.62212,2.5724 -5.033,4.44777 l -153.62366,20.89282 a 3.0126736,3.0126736 0 1 0 0.81931,5.96938 l 154.44299,-21.00985 c 1.29894,1.86831 3.2245,3.67078 5.50118,5.15004 4.886,3.17461 11.7071,3.89497 17.3229,2.34094 3.47525,-0.96172 9.7482,-4.2118 13.57738,-4.21368 15.51683,-0.0112 25.43581,-0.44872 39.32762,-0.46818 17.97985,-0.0252 34.8636,-4.1161 52.90504,-4.68187 4.05207,-0.12715 7.5277,0.11574 6.32051,3.97959 -5.30621,16.98461 -6.21898,33.86156 -10.066,47.98907 -6.20232,22.77736 -28.33724,30.4383 -46.35043,38.62535 -18.85738,8.57079 -31.166,20.4895 -36.9867,41.20038 -9.37271,33.34944 -10.14988,73.66914 -13.81146,99.25547 -0.27098,1.89416 -10.59394,-0.82273 -21.53657,7.02278 -4.62887,3.31879 -15.33553,0.56411 -20.36609,-2.10684 -3.60204,-1.91247 -7.14302,3.31201 -6.49618,6.32052 l -77.30914,-18.72745 c -18.03433,-5.7214 -32.06065,-17.45507 -42.60493,-34.41167 -1.20625,-1.60927 -2.93535,-1.01131 -2.80913,0 4.65134,17.12553 17.22083,38.98687 40.02993,45.64814 l 323.28249,73.50522 c 4.78431,0.98604 7.71684,-4.74876 1.40455,-7.49097 l -173.8141,-42.07823 c 5.60419,-2.32146 6.60818,-17.01277 6.20347,-24.17011 -1.02626,-18.15031 6.69149,-35.32797 16.85471,-53.13913 6.32071,-11.07721 8.0779,-22.82026 9.12962,-34.17758 0.41912,-4.52591 3.51891,-9.51391 7.72506,-11.23647 13.19443,-5.40355 32.52567,-10.55775 47.05272,-19.66382 20.92644,-13.11749 42.47646,-30.3727 41.66855,-54.3096 -1.07024,-31.70874 17.62536,-45.68295 27.1548,-61.33238 6.0855,-9.99367 8.99875,-22.81936 6.32052,-34.17758 -3.01042,-12.767 1.05062,-26.20081 6.78871,-40.4981 3.2904,-8.19874 4.17567,-19.80111 -1.63866,-26.45252 -4.67287,-5.3457 -12.28967,-7.14359 -20.01496,-7.25687 z"
       id="path5262"
       style="fill:#000000;fill-opacity:1;stroke:none" />
  </g>
</svg>
