<?xml version="1.0" encoding="UTF-8" standalone="no"?>
<!DOCTYPE svg PUBLIC "-//W3C//DTD SVG 1.1//EN" "http://www.w3.org/Graphics/SVG/1.1/DTD/svg11.dtd">
<!-- Created with Inkscape (http://www.inkscape.org/) -->

<svg
   xmlns:dc="http://purl.org/dc/elements/1.1/"
   xmlns:cc="http://creativecommons.org/ns#"
   xmlns:rdf="http://www.w3.org/1999/02/22-rdf-syntax-ns#"
   xmlns:svg="http://www.w3.org/2000/svg"
   xmlns="http://www.w3.org/2000/svg"
   version="1.1"
   width="600"
   height="600"
   id="svg6640">
  <defs
     id="defs6642" />
  <metadata
     id="metadata6645">
    <rdf:RDF>
      <cc:Work
         rdf:about="">
        <dc:format>image/svg+xml</dc:format>
        <dc:type
           rdf:resource="http://purl.org/dc/dcmitype/StillImage" />
        <dc:title></dc:title>
      </cc:Work>
    </rdf:RDF>
  </metadata>
  <g
     transform="translate(-79.283485,-104.50727)"
     id="layer1">
    <rect
       width="480.19952"
       height="480.19952"
       x="139.18376"
       y="164.4075"
       id="rect9702"
       style="fill:#ffffff;fill-opacity:1;fill-rule:evenodd;stroke:none" />
    <path
       d="M 158.18408,141.77124 116.54745,183.40787 600.3829,667.24334 642.01954,625.60669 158.18408,141.77124 z"
       id="path9614"
       style="font-size:medium;font-style:normal;font-variant:normal;font-weight:normal;font-stretch:normal;text-indent:0;text-align:start;text-decoration:none;line-height:normal;letter-spacing:normal;word-spacing:normal;text-transform:none;direction:ltr;block-progression:tb;writing-mode:lr-tb;text-anchor:start;baseline-shift:baseline;color:#000000;fill:#e51f13;fill-opacity:1;stroke:none;stroke-width:29;marker:none;visibility:visible;display:inline;overflow:visible;enable-background:accumulate;font-family:Sans;-inkscape-font-specification:Sans" />
    <path
       d="m 99.283485,124.50727 0,560.00002 560.000015,0 0,-560.00002 -560.000015,0 z m 58.075495,58.01201 443.91251,0 0,443.976 -443.91251,0 0,-443.976 z"
       id="rect9610"
       style="fill:#e51f13;fill-opacity:1;stroke:none" />
    <path
       d="m 457.46336,194.47595 c -1.6312,0.13366 -3.18607,1.28913 -3.79188,4.0219 l -45.62007,183.91584 -7.52661,-8.6758 c -0.0318,-0.0399 -0.0302,-0.0239 -0.0575,-0.0573 -0.0343,-0.0394 -0.0294,-0.0248 -0.0573,-0.0573 l -1.09176,-1.26403 a 3.6775355,3.6775355 0 0 0 -0.17227,-0.11491 3.6775355,3.6775355 0 0 0 -1.32137,-0.91929 3.6775355,3.6775355 0 0 0 -0.0575,0 c -4.09045,-3.59006 -9.32198,-5.9754 -15.1683,-5.9754 -4.65567,0 -8.99785,1.41235 -12.64028,3.79209 -0.6025,-0.54953 -1.51425,-0.94045 -2.70032,-1.14912 -3.4512,-0.0796 -6.76176,-0.62483 -10.6294,1.37893 -3.04948,1.68593 -5.07192,4.23927 -13.96166,6.03286 -3.28905,1.85467 -6.98496,3.68861 -16.71972,5.11356 -10.38027,2.01685 -20.38272,7.25761 -32.00275,-2.29824 -10.43452,-8.55704 -17.6197,-13.13536 -31.60085,-26.02745 -4.56244,-4.19415 -9.19182,-8.25978 -17.17917,-6.03285 -1.03712,0.62788 -6.11051,0.0566 -3.27506,-5.11356 4.79337,-11.23907 11.82907,-21.11728 7.46943,-38.09316 -1.3284,-4.45111 -2.20061,-7.86242 -6.49258,-6.95215 -1.74058,0.10536 -2.4216,1.0092 -7.0096,-0.91929 -6.35176,-4.11707 -13.16996,-3.25514 -20.39689,1.37894 -9.8048,7.3115 -11.22823,25.8761 -6.03276,30.68137 2.41241,2.2784 4.94984,3.28305 6.95206,9.25038 1.39291,4.58143 2.80145,8.61886 4.19436,9.30783 4.18461,2.74642 4.17395,7.67912 0.9193,14.36393 -3.93403,11.50595 -1.0184,22.34235 3.7347,32.9796 8.1567,20.2638 7.76323,40.08414 8.33099,59.92634 -0.65397,32.94628 34.35981,49.19446 74.29017,63.14386 -2.36424,18.36983 -1.52657,33.85609 7.87153,41.77033 10.90042,9.73065 16.45956,21.08533 18.61567,33.43924 -8.22178,0.11897 -18.54801,0.19336 -24.9358,1.9535 -19.91663,5.48808 -27.79203,18.52021 -10.85904,19.76478 34.82443,2.5596 83.70612,2.12639 120.25478,-3.33243 17.26597,-2.57882 7.37126,-14.32788 1.43631,-15.16832 -9.31262,-1.31881 -21.04829,-1.53656 -33.89871,-4.13682 -1.99155,-0.52185 -2.9991,-3.41764 0,-6.03285 58.21949,-54.38918 117.60097,-107.28843 163.86381,-167.65587 3.02002,-6.03606 2.24362,-12.06248 -0.9193,-18.09856 -29.19566,-67.28026 -52.7893,-130.07631 -87.73507,-201.95696 -0.7621,-1.40995 -2.44808,-2.31691 -4.07944,-2.18333 z m -74.86475,178.22772 c 4.44,0 8.38451,1.79808 11.26133,4.71138 a 3.6775355,3.6775355 0 0 0 0.28739,0.22982 3.6775355,3.6775355 0 0 0 0.28716,0.22982 l 0.34474,0.45965 0.11491,0.11491 c -0.0258,-0.0343 0.17319,0.18893 0.0573,0.0573 l 10.97414,12.64027 -9.36538,37.63352 -24.99315,-28.8428 a 3.6775355,3.6775355 0 0 0 -0.11492,-0.1149 c -0.11215,-0.11583 -0.1401,-0.14378 -0.0573,-0.0573 a 3.6775355,3.6775355 0 0 0 -0.0575,-0.0573 c -2.85808,-2.88188 -4.59646,-6.78043 -4.59646,-11.14642 0,-8.80155 7.0563,-15.85778 15.85779,-15.85778 z m -22.17792,8.9631 c -0.68046,2.17762 -1.0342,4.49916 -1.0342,6.89469 0,6.3071 2.58523,12.03261 6.66487,16.20252 0.0183,0.0189 0.039,0.0388 0.0575,0.0573 0.11951,0.12484 0.13275,0.13514 0.0573,0.0573 l 28.26823,32.5774 -36.42695,146.91436 -7.92888,-0.9193 -16.71971,-56.19172 c -1.66815,-5.07666 -2.41278,-9.77913 -3.21752,-14.42139 0.53429,-5.86342 -1.45193,-12.57194 -3.2749,-13.90429 -11.96752,-16.36774 -26.41199,-28.66999 -44.06864,-38.03571 -1.66336,-1.57936 -4.10906,-1.72369 -3.73453,-9.82492 l -3.73453,-47.34354 c -1.2769,-7.0714 1.35062,-12.47915 11.14622,-5.57321 10.76399,6.47704 21.2737,7.87977 31.60086,6.4925 12.99344,-3.04106 23.76111,-7.10196 33.8987,-18.27093 1.53356,-1.00067 5.07909,-2.8805 8.44608,-4.71136 z"
       id="path3928"
       style="fill:#000000;fill-opacity:1;stroke:none" />
  </g>
</svg>
